<svg version="1.1" id="Layer_1" xmlns="http://www.w3.org/2000/svg" xmlns:xlink="http://www.w3.org/1999/xlink" x="0px" y="0px"
	 width="100%" viewBox="0 0 1024 1024" enable-background="new 0 0 1024 1024" xml:space="preserve">
<path fill="#000000" opacity="1.000000" stroke="none" 
	d="
M365.198792,461.070862 
	C359.935425,477.940674 357.016815,494.847107 357.494110,512.080811 
	C357.922516,527.550110 359.813599,542.958679 364.475281,557.830688 
	C365.553192,561.269592 364.528076,562.943604 361.692902,564.698547 
	C334.863708,581.305603 310.839203,601.184998 290.947845,625.834717 
	C290.333527,626.596008 289.810577,627.516357 288.602875,627.662292 
	C286.782471,627.151184 286.390778,625.429688 285.680389,623.969482 
	C270.110779,591.966492 261.089081,558.297729 259.578796,522.651306 
	C256.056183,439.509033 285.046967,369.361298 344.534973,311.767731 
	C386.852539,270.797791 437.963806,246.931229 496.069916,239.205200 
	C568.170105,229.618454 633.889771,247.005005 692.841553,289.687225 
	C711.568542,303.245941 728.169556,319.046753 742.800720,336.964478 
	C745.487488,340.254700 745.242554,341.987091 741.759888,344.381714 
	C717.048157,361.372986 692.414124,378.478394 667.864441,395.702820 
	C664.625549,397.975281 662.768799,397.853424 660.018250,394.858307 
	C633.624695,366.117371 601.447876,347.289276 562.999939,340.009644 
	C524.701294,332.758331 488.015259,338.365601 453.404480,356.193298 
	C420.178711,373.307617 394.538666,398.340485 377.154297,431.578522 
	C372.282196,440.893799 368.319672,450.601898 365.198792,461.070862 
z"/>
<path fill="#000000" opacity="1.000000" stroke="none" 
	d="
M455.964600,760.216675 
	C405.300049,747.808105 363.404266,721.354553 327.175629,684.812134 
	C330.245300,680.391052 334.215302,677.849548 337.835602,675.030151 
	C380.890289,641.500061 429.797302,622.278015 483.950958,617.066956 
	C548.749573,610.831543 609.002747,625.135803 664.314087,659.618042 
	C675.060791,666.317688 685.151611,673.975769 694.860352,682.123657 
	C697.336060,684.201294 698.701904,685.904602 695.585754,688.878174 
	C674.177612,709.307068 651.639648,728.189270 625.007629,741.609375 
	C597.018494,755.713257 567.438171,763.957764 536.154236,766.473938 
	C509.186279,768.642944 482.634277,766.638855 455.964600,760.216675 
z"/>
<path fill="#000000" opacity="1.000000" stroke="none" 
	d="
M676.550964,606.479980 
	C640.566223,590.446350 603.329163,581.076721 564.325623,578.992065 
	C479.611023,574.464172 402.078339,595.667236 332.167084,643.993347 
	C325.321899,648.725037 318.738556,653.835510 312.029572,658.764526 
	C310.498627,659.889343 309.081512,661.967224 306.995880,659.624451 
	C305.233765,657.645203 304.184113,655.742798 306.194458,653.033875 
	C312.361145,644.724426 319.017365,636.838257 326.091064,629.304443 
	C373.025452,579.317627 430.967896,549.327454 497.476471,534.750854 
	C522.297424,529.310913 547.405212,526.422485 572.745422,526.180908 
	C634.040649,525.596558 692.284729,539.152710 747.732178,565.083618 
	C750.749207,566.494507 753.733093,567.988098 756.809265,569.256897 
	C759.812073,570.495422 760.673523,572.344482 759.778259,575.544617 
	C753.873840,596.648804 745.549866,616.745605 735.147461,636.018127 
	C733.306702,639.428650 731.597717,638.336182 729.249756,636.715271 
	C712.632690,625.243713 695.276123,615.043152 676.550964,606.479980 
z"/>
</svg>